PathFileType	4	(X/Y/Z)	T1_P1_NoVision_NoMovement_3_0-639.trc
DataRate	CameraRate	NumFrames	NumMarkers	Units	OrigDataRate	OrigDataStartFrame	OrigNumFrames
60	60	7	27	m	60	159	639
Frame#	Time	RHip			RKnee			RAnkle			RBigToe			RSmallToe			RHeel			LHip			LKnee			LAnkle			LBigToe			LSmallToe			LHeel			Neck			Head			Nose			RShoulder			RElbow			RWrist			RThumb			RIndex			RPinky			LShoulder			LElbow			LWrist			LThumb			LIndex			LPinky		
		X1	Y1	Z1	X2	Y2	Z2	X3	Y3	Z3	X4	Y4	Z4	X5	Y5	Z5	X6	Y6	Z6	X7	Y7	Z7	X8	Y8	Z8	X9	Y9	Z9	X10	Y10	Z10	X11	Y11	Z11	X12	Y12	Z12	X13	Y13	Z13	X14	Y14	Z14	X15	Y15	Z15	X16	Y16	Z16	X17	Y17	Z17	X18	Y18	Z18	X19	Y19	Z19	X20	Y20	Z20	X21	Y21	Z21	X22	Y22	Z22	X23	Y23	Z23	X24	Y24	Z24	X25	Y25	Z25	X26	Y26	Z26	X27	Y27	Z27
160	2.6666666666666665	-66.11305735543826	3769.4652351297054	-541.3612875262663	295.5942336067447	3883.3945162212194	-549.4735783240031	647.2675645109626	4189.663446644202	-601.5542775791478	700.443027764545	3958.2054486417937	-485.3665936159042	714.0820487436454	4033.5378143565313	-599.4824944291609	685.401995336231	4211.741590880512	-573.7193582073357	-108.14604509000408	3898.1215172024595	-354.4134297476731	240.29483466109122	4010.6595640926666	-360.2796460598905	584.2039235520199	4196.836137726193	-384.8543802656791	676.504597973406	4131.092253048027	-328.6102907841045	638.2337180797462	4138.402648878931	-291.7291687763841	620.39426037534	4248.775113185167	-424.34525897182357	-651.3316265030121	3659.230071311734	-464.1634401694914	-900.3002203354266	3527.3589356880543	-419.3707298323817	-744.3436804621857	3565.2048366686377	-404.76748189941895	-557.2666340791604	3634.825038368446	-623.593224717471	-300.38138530832816	3746.308777802522	-704.548546471353	-42.09869088493072	3676.929839181502	-625.9096858482492	71.19545224135116	3784.4559659541515	-573.9405997062388	89.94281741722241	3757.968755200158	-582.2058069046103	84.44536586428524	3677.9640101352206	-585.483748921126	-604.131422361493	3746.9167320884144	-334.9087901658076	-387.0139784641747	3979.421154987496	-331.67655742134014	-123.73650420458027	3977.209091827165	-292.56344513526403	6.912632215361914	3928.2878968760942	-320.41843806510525	28.145746895497844	3923.3154267274117	-277.41556928252146	0.970582547735034	3990.0515201758885	-246.60847179668932
161	2.683333333333333	-66.09766528248129	3765.234518494488	-540.0434053244322	293.8546524781523	3879.3051479092023	-546.6459688036739	647.1049122562997	4185.425992338249	-598.5056615306621	701.177042775307	3958.728208678332	-488.06377088116125	714.9144357030765	4033.7160636747876	-599.5423485907603	685.7437559103096	4212.289289537917	-574.9118637012731	-108.2210883675649	3895.1777591561013	-352.3439635002732	240.31587216119232	4010.5451591646865	-360.25115992792126	584.276378211671	4196.647200427996	-384.7581160661576	676.3941192700611	4131.170032859843	-328.87162889885553	637.8857155716032	4138.040441099147	-291.93978390395705	619.5820223123857	4237.745119164155	-421.90646738338086	-650.68820428458	3659.6791908050805	-464.4055595120277	-899.6641882483617	3527.703745101775	-419.47268501842507	-743.1479472079666	3565.7501731076604	-404.86643182946773	-557.2878909685842	3634.8910474618	-623.6316992796881	-302.21233485217994	3745.989853472705	-704.6053375633431	-41.94352475652188	3680.083558822381	-628.4817339504484	71.0446061180349	3777.52466197048	-572.1867548056106	90.25316573753382	3760.0592015334096	-584.3017322058226	84.35326016589148	3674.6669535705514	-584.3970439854728	-604.1335316319619	3746.9064309630157	-334.8962812590789	-387.03392291614	3979.393096158555	-331.63741325817625	-123.29111879908001	3977.8578690527206	-292.734860580023	7.92665778962158	3928.761850757235	-320.5514167013011	28.212678609945264	3923.764006507806	-277.8616913521424	1.5858135848184256	3994.063406269246	-247.38761451357396
162	2.7	-66.18666527183869	3769.429654412027	-541.1476948525537	291.63856768750765	3875.9425381031724	-544.4673669678891	648.6601141346088	4183.097031717138	-596.6095637885229	700.4760339744548	3951.205974955308	-488.0063198173079	716.5916233651591	4033.9681462738895	-599.5009560220323	685.6925377502109	4214.083758090568	-576.5129783394277	-108.24188635964354	3893.9764214760708	-351.4701138382206	240.32187646787847	4010.8672217288013	-360.3182750141219	584.307863862262	4196.565574066476	-384.72755775203154	677.5509852012005	4132.203046513418	-329.010021926845	638.2509864602184	4138.306352624651	-291.9389880390108	620.0334688314233	4230.238157842661	-420.5372589051574	-650.3260175422628	3660.0740369939517	-464.74001829785925	-900.3274600114839	3527.223608077901	-419.3242989972972	-741.6346219247125	3566.644308463605	-405.1380155633671	-557.310331514096	3634.9503518343763	-623.6579947510048	-303.59185088148286	3745.8735117560504	-704.6771961689966	-41.85258324571215	3682.462121274395	-630.3855874547394	70.94979848287001	3774.093220185082	-571.2846074073751	90.22940868205207	3760.045787635221	-584.2995049809209	84.34202908424233	3674.1438081423776	-584.6272837218878	-604.1314468695135	3746.929707332735	-334.9064732097934	-387.0315923553944	3979.408324450709	-331.6327534911809	-122.58681096302371	3978.589211335896	-292.9802360458874	9.89700563988551	3929.533263166814	-320.71698624460436	28.01574219070627	3923.599140474964	-276.8395896338329	1.6195257682855047	4001.2654289834445	-248.59657222470676
163	2.716666666666667	-66.33440997643125	3778.742533155902	-543.5947856908449	290.0176163721135	3873.748495689395	-543.1018873941739	651.839787919919	4184.385522830961	-597.071018847827	699.3534829604494	3943.051575376468	-486.70892068443993	718.2003440644851	4034.1805439838317	-599.3032693172398	685.9075943189073	4215.0268310187785	-577.0074862601006	-108.17723177196387	3896.0464508486107	-352.88102287086116	240.36396302430978	4011.573366426463	-360.45720033439835	584.5179958972146	4196.747767290892	-384.80616325928764	679.6098763569768	4133.80642397578	-328.8786928955031	638.9150054486138	4139.258773656486	-291.91455327016604	622.1107397299024	4231.7088145138805	-421.3283737330227	-650.4765262651363	3660.3215495098866	-465.1042999368782	-901.746914399446	3526.2903964179704	-419.0467603814604	-740.5380691317251	3567.3645309839876	-405.38421175617987	-557.3274861373806	3635.023452152088	-623.6948035825644	-304.112120651891	3745.918064162578	-704.7211598046869	-41.87346734314646	3682.9138844246568	-630.7069193098125	70.8865104134541	3772.776959998636	-570.8766305549925	89.386479484337	3755.598513371612	-580.8814275511081	84.37108802019738	3674.488402747582	-585.4183656011176	-604.1277486607787	3746.9614314915084	-334.92482954047875	-387.0090691295111	3979.505546568462	-331.7217820141671	-122.13112284915681	3979.0310311881058	-293.1625431410884	11.553368940721217	3930.3283510990273	-320.9332458233994	27.8024182052152	3923.385170769636	-275.8655881460022	1.3947743639330852	4007.7169775719585	-249.64463851245722
164	2.7333333333333334	-66.44991562013222	3786.562058092009	-545.6118983319965	289.0848579702045	3870.8122618313764	-541.0517066504502	654.2270182913574	4186.115502551751	-597.9811505544662	698.4841454640671	3941.3161764623665	-487.1112556772414	718.2902491348899	4033.7596874893534	-598.8683856015866	685.2663664748977	4213.300262438233	-575.9729518860133	-108.09060712103286	3898.9265560374483	-354.8693003504382	240.37477648053795	4011.6308555808055	-360.47347187024883	585.162114964121	4197.299612097804	-385.038950204051	681.0808067229481	4134.822155250188	-328.38738258993385	638.6628756201377	4140.25842308878	-291.8426143495661	624.77184452508	4240.689757057196	-423.7194613318546	-651.2044054724649	3660.319393189662	-465.3539009998362	-902.9263605262738	3525.541848392596	-418.8223706666638	-740.2358369572752	3567.5892071733233	-405.45827736117076	-557.3344377623362	3635.106440062673	-623.7447970499601	-304.0782354567285	3746.020060066754	-704.7321649606761	-42.014170981505316	3680.6581110531333	-628.8348541537061	70.83542607517167	3770.4860932817805	-570.2068551960674	88.16130407234265	3749.227210481058	-575.7462345021313	84.41224876419102	3674.7097895740744	-585.9198388821453	-604.1231704846525	3746.9761028499242	-334.9396182271906	-386.98466808089415	3979.7333380990035	-331.95351929780554	-121.98838173765192	3979.153432157377	-293.24525704597136	12.811363871952816	3931.028506205924	-321.1748833779537	27.85921572017182	3923.4646257293152	-275.5394268887861	1.151421036938034	4007.436105068108	-249.56141920974875
165	2.75	-66.49630544004765	3789.8200137739686	-546.4081126883808	288.68037868849325	3868.089449683523	-539.0567372400743	654.0253038065779	4185.380164222826	-597.5668031149464	698.3311346092313	3948.145874479704	-490.67289521829696	717.256318869699	4032.7364096821634	-598.3946784792363	683.5167591225438	4210.359485518758	-574.7473995826725	-108.10290068745236	3898.6625003269432	-354.67532053430216	240.24126028524938	4008.779377386074	-359.940308419819	586.1023241852928	4198.040469215157	-385.361213731274	680.830675216462	4134.428151226174	-327.4604830784108	636.8776829449095	4140.481473170776	-291.4646007570502	626.6978558286257	4250.347132896063	-426.09479841550166	-652.1908162905706	3660.1056815118213	-465.4219500515054	-903.4128207733501	3525.2578636225135	-418.7277440147478	-740.738438447293	3567.309984800499	-405.3516851775403	-557.3319069418475	3635.1622554475284	-623.7826001641766	-303.91209531024583	3746.1094794712144	-704.7272622760447	-42.27831566206837	3675.377369529963	-624.4998231673401	70.85325578763515	3769.525394991564	-569.8940516463316	87.3584324263577	3745.7952167093545	-571.9797993069022	84.45293964159356	3674.561001439528	-585.9557998635017	-604.1131286232403	3746.95952704326	-334.9441990445228	-386.9692056592721	3979.9768544023123	-332.1941165461203	-121.39554361435765	3979.5244853585264	-293.4256331718419	14.25408212431126	3931.7351492088314	-321.438471758182	28.502019764250228	3923.9944973688953	-275.77034225376724	1.1604234885135865	4000.510239552644	-248.38650580282146
166	2.7666666666666666	-66.50134488869644	3789.9339906734062	-546.3780110894953	289.03591204100394	3868.8210556431286	-539.5322090344883	652.0731090731656	4183.912821980666	-596.9508228347788	699.2360314119003	3959.862834306896	-495.3576378838998	716.3302811579091	4031.9044185653947	-598.1871149842017	682.2776536360666	4208.224948237889	-574.2124049100803	-108.25280080072628	3894.019191589926	-351.4356256082489	239.91456611526883	4001.336921139406	-358.5463394675692	586.5561037257067	4198.36304986848	-385.50617281605787	679.0502482054228	4133.339710327527	-326.73163631611067	634.5232161828112	4139.788230887457	-290.7192163762047	627.2624892930144	4254.233599695492	-426.8294110167533	-653.3475905624045	3659.6314681665262	-465.29615392525824	-903.4206031495528	3525.276398871324	-418.7183383116413	-741.9595980436237	3566.642865261033	-405.13804634348713	-557.3283523210839	3635.172119813683	-623.7895610093026	-303.8207159212105	3746.154810556476	-704.7192822492564	-42.57839118025096	3669.309039197855	-619.5141036086177	70.96664618432892	3774.051754010551	-571.0110968218955	87.17212537843605	3747.299790594142	-571.2463430206433	84.45704242634471	3674.1023302378285	-585.7527274407645	-604.0941849042053	3746.9146054702524	-334.9346356887733	-386.9433799575108	3979.6421432285238	-331.87505770709095	-120.06916832869165	3980.4010146432083	-293.7995020442387	15.295026098423682	3932.308252907407	-321.6888920603095	29.871037147301482	3925.134807681178	-277.05439003073536	1.909271382334513	3993.5857549061743	-247.30063860891084
